<svg width="100%" viewBox="-800 0 2042 891" fill="none" className="fiber_lines">
  <path
    opacity="0.8"
    fillRule="evenodd"
    clipRule="evenodd"
    d="M47.9535 236.813C90.7923 310.163 172.737 385.22 329.259 483.536L329.267 483.541L329.275 483.547C463.611 573.493 530.837 656.789 564.467 726.809C587.004 773.733 594.439 814.667 596.891 847.587C599.344 814.667 606.778 773.733 629.316 726.809C630.457 724.432 631.637 722.041 632.857 719.634C598.168 651.509 531.219 571.203 401.97 484.662C245.408 386.32 163.237 311.123 120.23 237.487C77.2091 163.825 73.4295 91.8022 73.4295 0.000119712L74.7644 0.000119818C74.7644 91.7896 78.5582 163.488 121.383 236.814C164.222 310.163 246.166 385.22 402.688 483.536L402.697 483.541L402.705 483.547C531.555 569.82 598.664 649.975 633.606 718.165C643.715 698.438 656.515 677.709 672.724 656.121C633.006 603.443 572.886 545.598 481.877 484.661C325.316 386.32 243.144 311.123 200.138 237.487C157.117 163.825 153.337 91.8022 153.337 0.000119712L154.672 0.000119818C154.672 91.7896 158.466 163.488 201.29 236.814C244.129 310.163 326.074 385.22 482.596 483.536L482.604 483.541L482.612 483.547C573.548 544.434 633.732 602.274 673.56 655.011C684.594 640.401 697.19 625.398 711.57 610.048C674.228 570.346 624.898 528.296 559.729 484.661C403.168 386.32 320.996 311.123 277.99 237.487C234.969 163.825 231.189 91.8022 231.189 0.000119712L232.524 0.000119818C232.524 91.7896 236.318 163.488 279.143 236.814C321.981 310.163 403.926 385.22 560.448 483.536L560.456 483.541L560.464 483.547C625.674 527.209 675.07 569.303 712.486 609.073C723.353 597.522 735.23 585.776 748.212 573.851C716.763 545.076 678.855 515.258 633.158 484.661C476.597 386.32 394.425 311.123 351.419 237.487C308.397 163.825 304.618 91.8022 304.618 0.000119712L305.953 0.000119818C305.953 91.7896 309.747 163.488 352.571 236.814C395.41 310.163 477.355 385.22 633.877 483.536L633.885 483.541L633.893 483.547C679.684 514.207 717.677 544.094 749.2 572.946C761.202 561.961 774.141 550.827 788.091 539.556C765.764 521.586 740.855 503.268 713.067 484.661C556.505 386.32 474.334 311.123 431.327 237.487C388.306 163.825 384.527 91.8022 384.527 0.000119712L385.862 0.000119818C385.862 91.7896 389.655 163.488 432.48 236.814C475.319 310.163 557.263 385.22 713.786 483.536L713.794 483.541L713.802 483.547C741.717 502.238 766.734 520.642 789.155 538.699C800.355 529.678 812.204 520.57 824.739 511.384C812.639 502.548 799.903 493.638 786.496 484.661C629.934 386.32 547.762 311.123 504.756 237.487C461.735 163.825 457.955 91.8022 457.955 0.000119712L459.29 0.000119818C459.29 91.7896 463.084 163.488 505.909 236.814C548.748 310.163 630.692 385.22 787.214 483.536L787.223 483.541L787.231 483.547C800.782 492.62 813.65 501.625 825.869 510.556C838.089 501.625 850.957 492.62 864.507 483.547L864.515 483.541L864.524 483.536C864.539 483.527 864.554 483.517 864.569 483.508C709.2 385.731 627.502 310.835 584.664 237.487C541.643 163.825 537.864 91.8022 537.864 0.000119712L539.198 0.000119818C539.198 91.7896 542.992 163.488 585.817 236.814C628.537 309.96 710.146 384.804 865.823 482.719C878.91 474.488 891.473 466.421 903.533 458.503C773.135 372.716 701.628 304.456 662.516 237.487C619.495 163.825 615.715 91.8022 615.715 0.000119712L617.05 0.000119818C617.05 91.7896 620.844 163.488 663.669 236.814C702.677 303.604 774.109 371.811 904.749 457.704C917.119 449.571 928.959 441.596 940.29 433.766C832.857 359.347 771.223 297.892 735.945 237.487C692.923 163.825 689.144 91.8022 689.144 0.000119712L690.479 0.000119818C690.479 91.7896 694.273 163.488 737.097 236.814C772.284 297.061 833.854 358.461 941.463 432.955C955.138 423.488 968.069 414.233 980.298 405.165C897.072 343.266 846.511 289.98 815.853 237.487C772.832 163.825 769.052 91.8022 769.052 0.000111266L770.387 0.000111371C770.387 91.7896 774.181 163.488 817.006 236.814C847.584 289.171 898.088 342.398 981.417 404.334C994.878 394.329 1007.48 384.551 1019.29 374.967C958.66 325.568 919.265 281.252 893.704 237.487C850.683 163.825 846.904 91.8022 846.904 0.000119712L848.238 0.000119818C848.238 91.7896 852.032 163.488 894.857 236.814C920.348 280.46 959.685 324.711 1020.34 374.107C1081 324.711 1120.34 280.46 1145.83 236.813C1188.65 163.488 1192.45 91.7895 1192.45 0H1193.78C1193.78 91.8021 1190 163.825 1146.98 237.487C1121.42 281.252 1082.03 325.568 1021.4 374.967C1032.71 384.153 1044.76 393.518 1057.6 403.089C1139.93 341.685 1189.96 288.82 1220.34 236.814C1263.16 163.488 1266.96 91.7896 1266.96 0.000119712L1268.29 0.000119818C1268.29 91.8022 1264.51 163.825 1221.49 237.487C1191.04 289.628 1140.95 342.552 1058.71 403.922C1070.94 413.017 1083.87 422.301 1097.55 431.796C1204.13 357.824 1265.24 296.749 1300.25 236.814C1343.07 163.488 1346.86 91.7896 1346.86 0.000119712L1348.2 0.000119818C1348.2 91.8022 1344.42 163.825 1301.4 237.487C1266.3 297.578 1205.13 358.709 1098.72 432.609C1110.56 440.81 1122.96 449.17 1135.94 457.705C1266.58 371.811 1338.01 303.604 1377.02 236.814C1419.84 163.488 1423.64 91.7896 1423.64 0.000119712L1424.97 0.000119818C1424.97 91.8022 1421.19 163.825 1378.17 237.487C1339.06 304.456 1267.55 372.716 1137.15 458.503C1148.7 466.083 1160.71 473.801 1173.19 481.667C1327.78 384.268 1408.96 309.698 1451.53 236.814C1494.35 163.488 1498.15 91.7896 1498.15 0.000119712L1499.48 0.000119818C1499.48 91.8022 1495.7 163.825 1452.68 237.487C1410 310.572 1328.73 385.194 1174.44 482.456C1175.02 482.816 1175.59 483.176 1176.16 483.536L1176.17 483.541L1176.18 483.547C1188.92 492.074 1201.05 500.542 1212.61 508.945C1224.16 500.542 1236.3 492.074 1249.03 483.547L1249.04 483.541L1249.05 483.536C1405.57 385.22 1487.52 310.163 1530.36 236.814C1573.18 163.488 1576.97 91.7896 1576.97 0.000119712L1578.31 0.000119818C1578.31 91.8022 1574.53 163.825 1531.51 237.487C1488.5 311.123 1406.33 386.32 1249.77 484.662C1237.18 493.092 1225.18 501.464 1213.74 509.771C1226.47 519.049 1238.5 528.246 1249.86 537.356C1271.85 519.73 1296.32 501.775 1323.54 483.547L1323.55 483.541L1323.56 483.536C1480.08 385.22 1562.03 310.163 1604.86 236.814C1647.69 163.488 1651.48 91.7896 1651.48 0.000119712L1652.82 0.000119818C1652.82 91.8022 1649.04 163.825 1606.02 237.487C1563.01 311.123 1480.84 386.32 1324.28 484.662C1297.18 502.804 1272.82 520.673 1250.93 538.212C1264.87 549.42 1277.8 560.494 1289.81 571.42C1321.01 543.041 1358.47 513.667 1403.45 483.547L1403.46 483.541L1403.47 483.536C1559.99 385.22 1641.93 310.163 1684.77 236.814C1727.6 163.488 1731.39 91.7896 1731.39 0.000119712L1732.73 0.000119818C1732.73 91.8022 1728.95 163.825 1685.92 237.487C1642.92 311.123 1560.75 386.32 1404.18 484.662C1359.3 514.717 1321.92 544.021 1290.81 572.323C1304.44 584.773 1316.87 597.03 1328.2 609.073C1365.62 569.304 1415.01 527.209 1480.22 483.547L1480.23 483.541L1480.24 483.536C1636.76 385.22 1718.71 310.163 1761.54 236.814C1804.37 163.488 1808.16 91.7896 1808.16 0.000119712L1809.5 0.000119818C1809.5 91.8022 1805.72 163.825 1762.7 237.487C1719.69 311.123 1637.52 386.32 1480.96 484.662C1415.79 528.297 1366.46 570.346 1329.12 610.049C1342.77 624.629 1354.82 638.895 1365.45 652.81C1405.29 600.666 1465.06 543.588 1554.73 483.547L1554.74 483.541L1554.75 483.536C1711.27 385.22 1793.21 310.163 1836.05 236.814C1878.88 163.488 1882.67 91.7896 1882.67 0.000119712L1884.01 0.000119818C1884.01 91.8022 1880.23 163.825 1837.2 237.487C1794.2 311.123 1712.03 386.32 1555.46 484.662C1465.73 544.747 1406.02 601.827 1366.29 653.911C1382.4 675.12 1395.22 695.508 1405.41 714.941C1440.8 647.454 1507.81 568.464 1634.64 483.547L1634.65 483.541L1634.66 483.536C1791.18 385.22 1873.12 310.163 1915.96 236.813C1958.79 163.488 1962.58 91.7895 1962.58 2.62781e-06L1963.91 2.73339e-06C1963.91 91.8021 1960.13 163.825 1917.11 237.487C1874.11 311.123 1791.94 386.32 1635.37 484.662C1508.17 569.831 1441.31 648.96 1406.16 716.383C1407.98 719.89 1409.72 723.366 1411.37 726.809C1435.9 777.874 1442.54 821.845 1444.33 856.114C1446.13 821.845 1452.77 777.874 1477.3 726.809C1510.93 656.789 1578.15 573.493 1712.49 483.547L1712.5 483.541L1712.51 483.536C1869.03 385.22 1950.97 310.163 1993.81 236.814C2036.64 163.488 2040.43 91.7896 2040.43 0.000119712L2041.77 0.000119818C2041.77 91.8022 2037.99 163.825 1994.97 237.487C1951.96 311.123 1869.79 386.32 1713.22 484.662C1579.04 574.509 1512 657.635 1478.5 727.387C1445 797.133 1445 853.569 1445 890.141H1443.67C1443.67 853.569 1443.67 797.133 1410.17 727.387C1408.65 724.23 1407.07 721.045 1405.41 717.834C1403.75 721.045 1402.17 724.23 1400.65 727.387C1367.15 797.133 1367.15 853.569 1367.15 890.141H1365.82C1365.82 853.569 1365.81 797.133 1332.32 727.387C1330.49 723.582 1328.56 719.737 1326.53 715.854C1324.5 719.737 1322.57 723.582 1320.74 727.387C1288.06 795.429 1287.26 850.803 1287.24 887.424C1287.24 888.34 1287.24 889.244 1287.24 890.136V890.141H1285.91V890.136C1285.91 889.244 1285.91 888.34 1285.91 887.425C1285.89 850.803 1285.09 795.429 1252.41 727.387C1251.41 725.307 1250.38 723.216 1249.32 721.113C1248.26 723.216 1247.23 725.307 1246.23 727.387C1221.2 779.511 1214.87 824.201 1213.27 858.721C1213.81 870.396 1213.81 880.904 1213.81 890.136V890.141H1211.4V890.136C1211.4 880.904 1211.4 870.396 1211.94 858.721C1210.34 824.201 1204.01 779.511 1178.98 727.387C1177.46 724.23 1175.88 721.045 1174.22 717.833C1172.56 721.045 1170.98 724.23 1169.46 727.387C1136.78 795.429 1135.98 850.803 1135.96 887.424C1135.96 888.34 1135.96 889.244 1135.96 890.136V890.141H1134.63V890.136C1134.63 889.244 1134.63 888.34 1134.63 887.425C1134.61 850.803 1133.81 795.429 1101.13 727.387C1099.3 723.582 1097.37 719.738 1095.34 715.855C1093.31 719.738 1091.38 723.582 1089.55 727.387C1056.06 797.133 1056.05 853.569 1056.05 890.141H1054.72C1054.72 853.569 1054.72 797.133 1021.22 727.387C1020.22 725.307 1019.19 723.216 1018.13 721.113C1017.07 723.216 1016.04 725.307 1015.05 727.387C990.011 779.511 983.685 824.201 982.086 858.721C982.625 870.396 982.625 880.904 982.625 890.136V890.141H980.211V890.136C980.211 880.904 980.211 870.396 980.75 858.721C979.151 824.201 972.825 779.511 947.79 727.387C945.963 723.582 944.036 719.738 942.003 715.854C939.971 719.738 938.044 723.582 936.216 727.387C902.718 797.133 902.716 853.569 902.716 890.141H901.381C901.381 853.569 901.38 797.133 867.881 727.387C866.882 725.307 865.854 723.216 864.795 721.113C863.735 723.216 862.707 725.307 861.708 727.387C836.674 779.51 830.347 824.199 828.749 858.719C829.288 870.395 829.288 880.904 829.288 890.136V890.141H826.873V890.136C826.873 880.904 826.873 870.395 827.412 858.719C825.813 824.199 819.487 779.51 794.453 727.387C792.936 724.23 791.351 721.045 789.694 717.834C788.037 721.045 786.452 724.23 784.936 727.387C751.437 797.133 751.436 853.569 751.436 890.141H750.101C750.101 853.569 750.099 797.133 716.601 727.387C714.773 723.583 712.846 719.738 710.814 715.856C708.782 719.738 706.855 723.583 705.028 727.387C671.529 797.133 671.528 853.569 671.528 890.141H670.193C670.193 853.569 670.191 797.133 636.693 727.387C635.694 725.307 634.665 723.216 633.606 721.112C632.547 723.216 631.518 725.307 630.519 727.387C605.485 779.51 599.158 824.2 597.56 858.72C598.099 870.395 598.099 880.904 598.099 890.136V890.141L595.684 890.141V890.136C595.684 880.904 595.684 870.395 596.223 858.72C594.624 824.2 588.298 779.51 563.264 727.387C529.762 657.635 462.726 574.509 328.541 484.661C171.979 386.32 89.8071 311.123 46.8008 237.487C3.77965 163.825 -7.26727e-06 91.8021 0 0H1.33494C1.33493 91.7895 5.12873 163.488 47.9535 236.813ZM634.355 719.634C635.575 722.041 636.755 724.432 637.896 726.809C662.422 777.874 669.062 821.845 670.86 856.114C672.658 821.845 679.298 777.874 703.825 726.809C705.786 722.724 707.862 718.595 710.06 714.421C700.409 696.169 688.429 677.069 673.56 657.232C657.268 678.966 644.446 699.815 634.355 719.634ZM674.395 656.121C689.194 675.831 701.152 694.825 710.814 712.995C720.837 694.147 733.33 674.413 748.901 653.912C738.26 639.962 726.186 625.653 712.486 611.024C698.061 626.426 685.44 641.473 674.395 656.121ZM713.401 610.048C727.06 624.629 739.11 638.895 749.74 652.811C760.23 639.079 772.103 625.005 785.54 610.624C774.511 598.868 762.431 586.906 749.2 574.757C736.186 586.707 724.284 598.477 713.401 610.048ZM750.188 573.851C763.385 585.973 775.441 597.912 786.455 609.648C798.213 597.118 811.16 584.357 825.416 571.388C814.161 561.189 802.094 550.86 789.155 540.414C775.173 551.702 762.208 562.853 750.188 573.851ZM790.218 539.556C803.128 549.986 815.173 560.3 826.409 570.486C837.489 560.442 849.355 550.274 862.061 539.992C850.683 530.82 838.632 521.556 825.869 512.21C813.308 521.408 801.437 530.526 790.218 539.556ZM826.999 511.384C839.736 520.718 851.764 529.971 863.124 539.134C875.281 529.327 888.205 519.418 901.942 509.415C890.653 501.225 878.816 492.972 866.404 484.661C866.21 484.54 866.017 484.418 865.823 484.296C865.63 484.418 865.436 484.54 865.242 484.661C851.836 493.638 839.099 502.548 826.999 511.384ZM867.077 483.508C867.092 483.517 867.107 483.527 867.123 483.536L867.131 483.541L867.139 483.547C879.696 491.954 891.666 500.304 903.078 508.59C914.489 500.304 926.459 491.954 939.016 483.547L939.024 483.541L939.033 483.536C939.606 483.176 940.179 482.816 940.751 482.456C928.279 474.594 916.284 466.879 904.749 459.302C892.699 467.217 880.149 475.281 867.077 483.508ZM905.964 458.503C917.511 466.083 929.518 473.801 942.003 481.667C954.294 473.923 966.121 466.324 977.502 458.858C964.952 450.607 952.947 442.519 941.463 434.578C930.144 442.405 918.318 450.375 905.964 458.503ZM942.636 433.766C954.133 441.71 966.152 449.803 978.718 458.059C992.272 449.154 1005.19 440.438 1017.5 431.895C1004.84 423.087 992.824 414.461 981.417 405.997C969.204 415.06 956.29 424.309 942.636 433.766ZM982.537 405.165C993.958 413.634 1005.99 422.267 1018.67 431.082C1031.97 421.835 1044.56 412.789 1056.48 403.922C1043.67 394.362 1031.64 385.007 1020.34 375.828C1008.56 385.404 995.972 395.173 982.537 405.165ZM1057.6 404.755C1045.69 413.617 1033.12 422.656 1019.84 431.895C1032.15 440.438 1045.07 449.154 1058.63 458.059C1071.8 449.402 1084.38 440.924 1096.38 432.609C1082.72 423.122 1069.81 413.845 1057.6 404.755ZM1097.55 433.421C1085.56 441.733 1073 450.206 1059.84 458.858C1071.74 466.662 1084.12 474.611 1097.01 482.72C1110.1 474.489 1122.66 466.421 1134.72 458.503C1121.76 449.975 1109.38 441.619 1097.55 433.421ZM1135.94 459.302C1123.89 467.217 1111.34 475.282 1098.27 483.508C1098.28 483.517 1098.3 483.527 1098.31 483.536L1098.32 483.541L1098.33 483.547C1110.88 491.954 1122.85 500.304 1134.27 508.59C1145.68 500.304 1157.65 491.954 1170.2 483.547L1170.21 483.541L1170.22 483.536C1170.79 483.176 1171.37 482.816 1171.94 482.456C1159.47 474.594 1147.47 466.879 1135.94 459.302ZM1173.19 483.245C1172.44 483.717 1171.69 484.189 1170.94 484.662C1158.53 492.972 1146.69 501.225 1135.4 509.415C1148.94 519.27 1161.68 529.034 1173.68 538.699C1185.54 529.15 1198.12 519.505 1211.47 509.771C1200.04 501.464 1188.04 493.092 1175.44 484.662C1174.69 484.189 1173.94 483.717 1173.19 483.245ZM1212.61 510.596C1199.23 520.342 1186.62 529.999 1174.74 539.557C1187.65 549.987 1199.7 560.301 1210.94 570.487C1222.65 559.863 1235.25 549.101 1248.79 538.212C1237.41 529.093 1225.36 519.885 1212.61 510.596ZM1249.86 539.068C1236.29 549.973 1223.67 560.751 1211.93 571.388C1226.18 584.357 1239.13 597.118 1250.89 609.647C1262.36 597.419 1274.97 584.97 1288.82 572.323C1276.79 561.383 1263.83 550.293 1249.86 539.068ZM1289.81 573.226C1275.93 585.901 1263.3 598.375 1251.8 610.624C1265.96 625.774 1278.38 640.584 1289.27 655.012C1300.31 640.401 1312.91 625.399 1327.29 610.049C1315.94 597.984 1303.48 585.703 1289.81 573.226ZM1328.2 611.024C1313.78 626.426 1301.15 641.473 1290.11 656.121C1304.91 675.831 1316.87 694.824 1326.53 712.993C1336.55 694.146 1349.04 674.412 1364.62 653.911C1353.97 639.961 1341.9 625.653 1328.2 611.024ZM1365.45 655.014C1349.81 675.646 1337.29 695.489 1327.28 714.42C1329.48 718.594 1331.56 722.724 1333.52 726.809C1358.04 777.874 1364.69 821.845 1366.48 856.114C1368.28 821.845 1374.92 777.874 1399.45 726.809C1401.1 723.365 1402.84 719.89 1404.66 716.383C1394.48 696.863 1381.64 676.36 1365.45 655.014ZM1325.77 714.42C1316.12 696.168 1304.14 677.068 1289.27 657.232C1272.98 678.966 1260.16 699.816 1250.07 719.635C1251.29 722.041 1252.47 724.433 1253.61 726.809C1278.13 777.869 1284.78 821.837 1286.57 856.104C1288.37 821.837 1295.01 777.869 1319.54 726.809C1321.5 722.724 1323.58 718.594 1325.77 714.42ZM1249.32 718.166C1259.43 698.438 1272.23 677.71 1288.44 656.121C1277.53 641.656 1265.09 626.802 1250.89 611.601C1236 627.536 1223.04 643.091 1211.77 658.216C1227.24 679.051 1239.54 699.077 1249.32 718.166ZM1210.93 657.099C1222.2 642.013 1235.13 626.505 1249.97 610.624C1238.2 598.073 1225.23 585.287 1210.94 572.29C1196.64 585.287 1183.67 598.073 1171.9 610.624C1186.73 626.506 1199.67 642.013 1210.93 657.099ZM1170.98 611.601C1185.87 627.537 1198.82 643.092 1210.1 658.216C1195.5 677.881 1183.72 696.825 1174.22 714.941C1164.03 695.507 1151.21 675.12 1135.11 653.912C1145.61 640.145 1157.5 626.029 1170.98 611.601ZM1170.98 609.648C1182.74 597.118 1195.69 584.357 1209.94 571.388C1198.69 561.189 1186.62 550.861 1173.68 540.414C1159.7 551.702 1146.73 562.853 1134.71 573.852C1147.91 585.974 1159.97 597.912 1170.98 609.648ZM1133.73 574.757C1146.96 586.906 1159.04 598.868 1170.07 610.625C1156.63 625.005 1144.76 639.079 1134.27 652.811C1123.64 638.896 1111.59 624.629 1097.93 610.049C1108.81 598.478 1120.71 586.708 1133.73 574.757ZM1133.73 572.946C1145.73 561.962 1158.67 550.827 1172.62 539.557C1160.6 529.882 1147.83 520.107 1134.27 510.24C1120.5 520.255 1107.55 530.175 1095.37 539.992C1109.12 551.114 1121.88 562.103 1133.73 572.946ZM1094.31 540.85C1108.09 551.99 1120.87 562.995 1132.74 573.852C1119.76 585.776 1107.88 597.523 1097.01 609.073C1085.4 596.728 1072.63 584.159 1058.59 571.388C1069.69 561.331 1081.58 551.148 1094.31 540.85ZM1094.31 539.134C1106.47 529.327 1119.39 519.417 1133.13 509.415C1121.84 501.225 1110 492.972 1097.59 484.662C1097.4 484.54 1097.21 484.418 1097.01 484.296C1096.82 484.418 1096.62 484.54 1096.43 484.662C1083.02 493.639 1070.29 502.548 1058.19 511.384C1070.92 520.718 1082.95 529.971 1094.31 539.134ZM1057.06 512.211C1069.82 521.557 1081.87 530.82 1093.25 539.992C1080.54 550.274 1068.68 560.442 1057.6 570.486C1046.36 560.3 1034.32 549.986 1021.41 539.557C1032.63 530.527 1044.5 521.409 1057.06 512.211ZM1057.06 510.557C1069.28 501.626 1082.15 492.62 1095.7 483.547L1095.7 483.541L1095.71 483.536C1095.73 483.527 1095.74 483.517 1095.76 483.508C1082.88 475.404 1070.51 467.458 1058.63 459.656C1046.24 467.784 1033.34 476.069 1019.88 484.524C1032.89 493.267 1045.28 501.946 1057.06 510.557ZM1018.67 483.716C1018.76 483.66 1018.84 483.603 1018.92 483.547L1018.93 483.541L1018.94 483.536C1032.3 475.145 1045.12 466.923 1057.41 458.858C1043.87 449.958 1030.97 441.248 1018.67 432.708C1006.37 441.248 993.47 449.958 979.934 458.858C992.228 466.923 1005.04 475.145 1018.4 483.536L1018.41 483.541L1018.42 483.547C1018.5 483.603 1018.59 483.66 1018.67 483.716ZM978.718 459.657C967.348 467.12 955.533 474.716 943.256 482.456C943.828 482.816 944.4 483.176 944.974 483.536L944.982 483.541L944.99 483.547C957.925 492.207 970.237 500.806 981.957 509.337C993.236 501.127 1005.06 492.854 1017.47 484.524C1004.01 476.069 991.099 467.784 978.718 459.657ZM1018.67 485.323C1031.72 494.076 1044.13 502.765 1055.93 511.384C1043.39 520.571 1031.54 529.678 1020.34 538.699C1008.65 529.279 996.244 519.764 983.091 510.163C994.391 501.945 1006.24 493.663 1018.67 485.323ZM980.824 510.163C969.225 501.728 957.046 493.225 944.256 484.662C943.504 484.189 942.753 483.717 942.003 483.245C941.254 483.717 940.503 484.189 939.75 484.662C927.339 492.972 915.502 501.225 904.213 509.415C917.95 519.418 930.874 529.327 943.032 539.134C954.886 529.572 967.469 519.912 980.824 510.163ZM944.094 539.992C955.968 530.42 968.574 520.749 981.957 510.989C995.138 520.601 1007.56 530.127 1019.28 539.557C1005.73 550.506 993.129 561.327 981.418 572.006C969.862 561.468 957.442 550.793 944.094 539.992ZM941.969 539.992C929.792 530.176 916.844 520.255 903.078 510.24C889.311 520.255 876.363 530.176 864.186 539.992C878.14 551.283 891.079 562.437 903.078 573.44C915.076 562.437 928.015 551.283 941.969 539.992ZM904.064 574.346C916.082 563.329 929.046 552.159 943.031 540.85C956.41 551.668 968.853 562.359 980.428 572.91C966.155 585.972 953.208 598.822 941.464 611.436C930.15 599.285 917.72 586.915 904.064 574.346ZM902.091 574.347C890.073 563.329 877.109 552.159 863.123 540.85C850.388 551.148 838.5 561.331 827.402 571.388C841.658 584.357 854.605 597.118 866.363 609.647C877.226 598.072 889.104 586.298 902.091 574.347ZM867.277 610.624C878.157 599.028 890.058 587.231 903.078 575.253C916.769 587.849 929.223 600.244 940.553 612.416C927.087 626.942 915.215 641.153 904.749 655.011C893.853 640.583 881.433 625.773 867.277 610.624ZM865.449 610.624C853.674 598.073 840.701 585.287 826.409 572.289C812.117 585.287 799.144 598.073 787.369 610.624C802.209 626.506 815.14 642.013 826.409 657.099C837.677 642.013 850.609 626.505 865.449 610.624ZM827.241 658.216C838.519 643.092 851.476 627.537 866.363 611.601C880.563 626.801 893.007 641.656 903.914 656.12C887.704 677.709 874.903 698.438 864.795 718.166C855.014 699.078 842.712 679.052 827.241 658.216ZM825.577 658.216C814.298 643.092 801.341 627.537 786.455 611.601C772.977 626.029 761.08 640.145 750.579 653.912C766.688 675.12 779.502 695.508 789.694 714.941C799.195 696.826 810.974 677.882 825.577 658.216ZM790.447 716.383C799.936 698.183 811.736 679.13 826.409 659.335C841.958 680.312 854.28 700.456 864.046 719.635C862.826 722.041 861.646 724.433 860.505 726.809C837.967 773.733 830.533 814.667 828.08 847.587C825.628 814.667 818.193 773.733 795.656 726.809C794.002 723.365 792.267 719.89 790.447 716.383ZM788.942 716.383C778.764 696.863 765.928 676.361 749.74 655.015C734.094 675.647 721.579 695.49 711.569 714.421C713.766 718.595 715.842 722.724 717.804 726.809C742.33 777.874 748.97 821.845 750.768 856.114C752.566 821.845 759.206 777.874 783.733 726.809C785.386 723.365 787.122 719.89 788.942 716.383ZM865.543 719.635C866.763 722.041 867.943 724.433 869.085 726.809C893.611 777.874 900.251 821.845 902.049 856.114C903.846 821.845 910.487 777.874 935.013 726.809C936.975 722.724 939.051 718.594 941.249 714.42C931.598 696.168 919.619 677.068 904.749 657.232C888.457 678.966 875.635 699.816 865.543 719.635ZM905.584 656.12C920.383 675.831 932.341 694.824 942.003 712.993C951.548 695.045 963.333 676.292 977.883 656.839C967.276 642.718 955.204 628.224 941.464 613.397C927.956 627.972 916.061 642.226 905.584 656.12ZM942.375 612.416C956.073 627.192 968.121 641.642 978.718 655.727C990.004 640.726 1002.94 625.311 1017.76 609.528C1006.72 597.821 994.639 585.909 981.418 573.814C967.108 586.905 954.135 599.781 942.375 612.416ZM982.407 572.91C995.595 584.979 1007.65 596.867 1018.67 608.554C1030.16 596.376 1042.76 583.98 1056.6 571.388C1045.35 561.189 1033.28 550.86 1020.34 540.414C1006.76 551.38 994.137 562.217 982.407 572.91ZM1057.6 572.289C1043.72 584.909 1031.09 597.329 1019.59 609.528C1034.17 625.06 1046.93 640.236 1058.09 655.012C1069.12 640.401 1081.72 625.399 1096.1 610.049C1084.47 597.682 1071.67 585.088 1057.6 572.289ZM1097.01 611.024C1082.59 626.426 1069.97 641.473 1058.92 656.121C1073.72 675.831 1085.68 694.825 1095.34 712.995C1105.36 694.148 1117.86 674.413 1133.43 653.912C1122.79 639.962 1110.71 625.653 1097.01 611.024ZM1134.27 655.015C1118.62 675.647 1106.11 695.49 1096.1 714.421C1098.29 718.595 1100.37 722.724 1102.33 726.809C1126.85 777.869 1133.5 821.837 1135.29 856.104C1137.09 821.837 1143.73 777.869 1168.26 726.809C1169.91 723.365 1171.65 719.89 1173.47 716.383C1163.29 696.862 1150.45 676.361 1134.27 655.015ZM1094.59 714.421C1084.94 696.169 1072.96 677.069 1058.09 657.232C1041.79 678.966 1028.97 699.816 1018.88 719.635C1020.1 722.041 1021.28 724.433 1022.42 726.809C1046.95 777.874 1053.59 821.845 1055.39 856.114C1057.18 821.845 1063.82 777.874 1088.35 726.809C1090.31 722.724 1092.39 718.595 1094.59 714.421ZM1018.13 718.166C1028.24 698.438 1041.04 677.71 1057.25 656.121C1046.08 641.308 1033.3 626.086 1018.67 610.502C1003.81 626.338 990.848 641.8 979.552 656.839C995.506 678.169 1008.14 698.657 1018.13 718.166ZM978.718 657.953C964.098 677.531 952.292 696.389 942.758 714.42C944.955 718.594 947.031 722.724 948.993 726.809C971.531 773.734 978.966 814.668 981.418 847.588C983.871 814.668 991.305 773.734 1013.84 726.809C1014.98 724.433 1016.16 722.041 1017.38 719.635C1007.4 700.035 994.753 679.427 978.718 657.953ZM1174.97 716.382C1184.46 698.182 1196.26 679.13 1210.93 659.335C1226.48 680.312 1238.81 700.456 1248.57 719.635C1247.35 722.041 1246.17 724.433 1245.03 726.809C1222.49 773.734 1215.06 814.668 1212.61 847.588C1210.15 814.668 1202.72 773.734 1180.18 726.809C1178.53 723.365 1176.79 719.89 1174.97 716.382Z"
    fill="url(#paint0_linear_690_2615)"
  ></path>
  <defs>
    <linearGradient
      id="paint0_linear_690_2615"
      x1="0"
      y1="0"
      x2="0"
      y2="100%"
      gradientUnits="userSpaceOnUse"
    >
      <stop offset="0" stopColor="#D1D1FF" className="stop1"></stop>
      <stop offset="0.25" stopColor="#AB69FF" className="stop2"></stop>
      <stop offset="0.5" stopColor="#769FFF" className="stop3"></stop>
      <stop offset="0.75" stopColor="#2B28DB" className="stop4"></stop>
      <stop offset="1" stopColor="#D1D1FF" className="stop5"></stop>
    </linearGradient>
  </defs>
</svg>
