<svg
  xmlns="http://www.w3.org/2000/svg"
  width="100%"
  viewBox="0 0 828 960"
  fill="none"
  class="u-cover-absolute prod-hero"
>
  <g clip-path="url(#clip0_2068_8877)">
    <path
      d="M3135 661.903C2999.23 661.903 2743.04 651.728 2381.83 449.928C1993.82 233.176 1797.73 190.736 1559.48 191.682M3135 600.825C2999.23 600.825 2743.04 590.65 2381.83 388.849C1993.82 172.098 1797.73 129.658 1559.48 130.604M3135 542.495C2999.23 542.495 2743.04 532.321 2381.83 330.52C1993.82 113.769 1797.73 71.3287 1559.48 72.274M3135 482.121C2999.23 482.121 2743.04 471.947 2381.83 270.146C1993.82 53.3947 1797.73 10.9549 1559.48 11.9002M3135 421.72C2999.23 421.72 2743.04 411.546 2381.83 209.745C1993.82 -7.00651 1797.73 -49.4463 1559.48 -48.501M3135 361.318C2999.23 361.318 2743.04 351.143 2381.83 149.343C1993.82 -67.4086 1797.73 -109.849 1559.48 -108.903M3135 298.828C2999.23 298.828 2743.04 288.654 2381.83 86.8532C1993.82 -129.898 1797.73 -172.338 1559.48 -171.393M1.90776e-05 661.341C135.767 661.341 391.959 651.167 753.171 449.366C1141.18 232.615 1337.27 190.175 1575.52 191.12M1575.52 1132C1439.75 1132 1183.56 1121.83 822.35 920.025C434.338 703.273 238.256 660.834 1.90876e-05 661.779M1.76788e-05 600.238C135.767 600.238 391.959 590.063 753.171 388.263C1141.18 171.511 1337.27 129.072 1575.52 130.017M1575.52 1070.93C1439.75 1070.93 1183.56 1060.75 822.35 858.954C434.338 642.203 238.256 599.763 1.76895e-05 600.708M1.6344e-05 541.932C135.767 541.932 391.959 531.757 753.171 329.956C1141.18 113.205 1337.27 70.7652 1575.52 71.7105M1575.52 1012.6C1439.75 1012.6 1183.56 1002.42 822.35 800.621C434.338 583.87 238.256 541.43 1.63541e-05 542.375M1.49612e-05 481.528C135.767 481.528 391.959 471.354 753.171 269.553C1141.18 52.8017 1337.27 10.3619 1575.52 11.3072M1575.52 952.217C1439.75 952.217 1183.56 942.042 822.35 740.241C434.338 523.49 238.256 481.05 1.49719e-05 481.995M1.35784e-05 421.128C135.767 421.128 391.959 410.954 753.171 209.153C1141.18 -7.59839 1337.27 -50.0382 1575.52 -49.0929M1575.52 891.822C1439.75 891.822 1183.56 881.647 822.35 679.846C434.338 463.095 238.256 420.655 1.35892e-05 421.6M1.21957e-05 360.729C135.767 360.729 391.959 350.555 753.171 148.754C1141.18 -67.9974 1337.27 -110.437 1575.52 -109.492M1575.52 831.422C1439.75 831.422 1183.56 821.247 822.35 619.446C434.338 402.695 238.256 360.255 1.22065e-05 361.2M1.07651e-05 298.237C135.767 298.237 391.959 288.062 753.171 86.2613C1141.18 -130.49 1337.27 -172.93 1575.52 -171.985M1575.52 768.93C1439.75 768.93 1183.56 758.755 822.35 556.955C434.338 340.203 238.256 297.763 1.07759e-05 298.709"
      stroke="url(#paint0_linear_2068_8877)"
      stroke-width="1.5"
      stroke-miterlimit="10"
    ></path>
  </g>
  <defs>
    <linearGradient
      id="paint0_linear_2068_8877"
      x1="0%"
      y1="0"
      x2="60%"
      y2="0"
      gradientUnits="userSpaceOnUse"
    >
      <stop offset="0.175" stop-color="#8877FF" class="stop1"></stop>
      <stop offset="0.946936" stop-color="#F1F1FF"></stop>
    </linearGradient>
    <clipPath id="clip0_2068_8877">
      <rect width="828" height="960" fill="currentColor"></rect>
    </clipPath>
  </defs>
</svg>
