<svg
  width="100%"
  height="100%"
  viewBox="0 0 1724 719"
  fill="none"
  xmlns="http://www.w3.org/2000/svg"
>
  <path
    opacity="1"
    d="M-7.53088e-05 259.328C74.6262 259.328 215.445 264.919 413.99 375.812C627.265 494.922 735.044 518.243 866.005 517.724M-7.16062e-05 292.892C74.6262 292.892 215.445 298.483 413.99 409.376C627.265 528.485 735.044 551.807 866.005 551.287M-6.80702e-05 324.945C74.6262 324.945 215.445 330.536 413.99 441.429C627.265 560.538 735.044 583.86 866.005 583.34M-6.44103e-05 358.121C74.6262 358.121 215.445 363.712 413.99 474.606C627.265 593.715 735.044 617.037 866.005 616.517M-6.07488e-05 391.313C74.6262 391.313 215.445 396.904 413.99 507.797C627.265 626.907 735.044 650.228 866.005 649.709M-5.70872e-05 424.505C74.6262 424.505 215.445 430.096 413.99 540.99C627.265 660.099 735.044 683.42 866.005 682.901M-5.3299e-05 458.844C74.6262 458.844 215.445 464.436 413.99 575.329C627.265 694.438 735.044 717.76 866.005 717.24M1723.19 259.636C1648.57 259.636 1507.75 265.227 1309.2 376.121C1095.93 495.23 988.147 518.552 857.187 518.032M857.187 1.00006C931.813 1.00005 1072.63 6.59123 1271.18 117.485C1484.45 236.594 1592.23 259.915 1723.19 259.396M1723.19 293.214C1648.57 293.214 1507.75 298.805 1309.2 409.698C1095.93 528.808 988.147 552.129 857.187 551.61M857.187 34.5597C931.813 34.5597 1072.63 40.1508 1271.18 151.044C1484.45 270.153 1592.23 293.475 1723.19 292.955M1723.19 325.254C1648.57 325.254 1507.75 330.845 1309.2 441.739C1095.93 560.848 988.147 584.17 857.187 583.65M857.187 66.6146C931.813 66.6146 1072.63 72.2058 1271.18 183.099C1484.45 302.208 1592.23 325.53 1723.19 325.01M1723.19 358.447C1648.57 358.447 1507.75 364.038 1309.2 474.932C1095.93 594.041 988.147 617.362 857.187 616.843M857.187 99.7947C931.813 99.7947 1072.63 105.386 1271.18 216.279C1484.45 335.388 1592.23 358.71 1723.19 358.19M1723.19 391.638C1648.57 391.638 1507.75 397.229 1309.2 508.123C1095.93 627.232 988.147 650.553 857.187 650.034M857.187 132.983C931.813 132.983 1072.63 138.574 1271.18 249.467C1484.45 368.577 1592.23 391.898 1723.19 391.379M1723.19 424.829C1648.57 424.829 1507.75 430.42 1309.2 541.313C1095.93 660.422 988.147 683.744 857.187 683.224M857.187 166.174C931.813 166.174 1072.63 171.765 1271.18 282.658C1484.45 401.768 1592.23 425.089 1723.19 424.57M1723.19 459.17C1648.57 459.17 1507.75 464.761 1309.2 575.654C1095.93 694.763 988.147 718.085 857.187 717.565M857.187 200.514C931.813 200.514 1072.63 206.105 1271.18 316.999C1484.45 436.108 1592.23 459.43 1723.19 458.91"
    stroke="url(#gradient)"
    stroke-width="2"
  ></path>
  <defs>
    <linearGradient
      id="gradient"
      x1="1507.69"
      y1="147.574"
      x2="-65.9109"
      y2="568.663"
      gradientUnits="userSpaceOnUse"
    >
      <stop offset="0.113245" stop-color="#D1D1FF"></stop>
      <stop offset="0.398291" stop-color="#4f46e5"></stop>
      <stop offset="0.631453" stop-color="#3d91fc"></stop>
      <stop offset="1" stop-color="#4845E7" stop-opacity="0.5"></stop>
    </linearGradient>
  </defs>
</svg>
