<svg width="100%" viewBox="0 0 521 552" fill="none" class="stats_graphic">
  <g clip-path="url(#clip)">
    <path
      d="M-1202.59 178.455C-1127.96 178.455 -987.145 184.046 -788.6 294.94C-575.325 414.049 -467.546 437.371 -336.585 436.851M-1202.59 212.019C-1127.96 212.019 -987.145 217.61 -788.6 328.503C-575.325 447.613 -467.546 470.934 -336.585 470.415M-1202.59 244.072C-1127.96 244.072 -987.145 249.663 -788.6 360.557C-575.325 479.666 -467.546 502.987 -336.585 502.468M-1202.59 277.249C-1127.96 277.249 -987.145 282.84 -788.6 393.733C-575.325 512.842 -467.546 536.164 -336.585 535.644M-1202.59 310.44C-1127.96 310.44 -987.145 316.032 -788.6 426.925C-575.325 546.034 -467.546 569.356 -336.585 568.836M-1202.59 343.633C-1127.96 343.633 -987.145 349.224 -788.6 460.117C-575.325 579.226 -467.546 602.548 -336.585 602.028M-1202.59 377.972C-1127.96 377.972 -987.145 383.563 -788.6 494.456C-575.325 613.566 -467.546 636.887 -336.585 636.368M520.602 178.764C445.975 178.764 305.157 184.355 106.612 295.248C-106.664 414.358 -214.443 437.679 -345.403 437.16M-345.403 -79.8725C-270.777 -79.8725 -129.958 -74.2813 68.5865 36.612C281.862 155.721 389.641 179.043 520.602 178.523M520.602 212.341C445.975 212.341 305.157 217.932 106.612 328.826C-106.664 447.935 -214.443 471.256 -345.403 470.737M-345.403 -46.3128C-270.777 -46.3128 -129.958 -40.7217 68.5865 70.1716C281.862 189.281 389.641 212.602 520.602 212.083M520.602 244.382C445.975 244.382 305.157 249.973 106.612 360.866C-106.664 479.975 -214.443 503.297 -345.403 502.778M-345.403 -14.258C-270.777 -14.258 -129.958 -8.66681 68.5865 102.227C281.862 221.336 389.641 244.657 520.602 244.138M520.602 277.574C445.975 277.574 305.157 283.166 106.612 394.059C-106.664 513.168 -214.443 536.49 -345.403 535.97M-345.403 18.9221C-270.777 18.9221 -129.958 24.5133 68.5865 135.407C281.862 254.516 389.641 277.837 520.602 277.318M520.602 310.765C445.975 310.765 305.157 316.357 106.612 427.25C-106.664 546.359 -214.443 569.681 -345.403 569.161M-345.403 52.1103C-270.777 52.1103 -129.958 57.7015 68.5865 168.595C281.862 287.704 389.641 311.026 520.602 310.506M520.602 343.956C445.975 343.956 305.157 349.547 106.612 460.441C-106.664 579.55 -214.443 602.871 -345.403 602.352M-345.403 85.3013C-270.777 85.3013 -129.958 90.8924 68.5866 201.786C281.862 320.895 389.641 344.217 520.602 343.697M520.602 378.297C445.975 378.297 305.157 383.888 106.612 494.782C-106.664 613.891 -214.443 637.212 -345.403 636.693M-345.403 119.642C-270.777 119.642 -129.958 125.233 68.5866 236.126C281.862 355.236 389.641 378.557 520.602 378.038"
      stroke="url(#gradient)"
      stroke-width="1.728"
      stroke-miterlimit="10"
    ></path>
  </g>
  <defs>
    <linearGradient
      id="gradient"
      x1="0%"
      y1="0"
      x2="100%"
      y2="0"
      gradientUnits="userSpaceOnUse"
    >
      <stop stop-color="#D1D1FF"></stop>
      <stop offset="0.299723" stop-color="#AB69FF" stop-opacity="0.5"></stop>
      <stop offset="0.583885" stop-color="#769FFF" stop-opacity="0.5"></stop>
      <stop offset="0.81836" stop-color="#291641" stop-opacity="0.25"></stop>
    </linearGradient>
    <clipPath id="clip">
      <rect width="521" height="552" fill="currentColor"></rect>
    </clipPath>
  </defs>
</svg>
